<svg xmlns="http://www.w3.org/2000/svg" viewBox="0 0 64 64" role="img" aria-label="PickSmart icon">
  <defs>
    <linearGradient id="bg" x1="0" y1="0" x2="1" y2="1">
      <stop offset="0%" stop-color="#1f7a8c" />
      <stop offset="100%" stop-color="#22c55e" />
    </linearGradient>
  </defs>
  <rect x="4" y="4" width="56" height="56" rx="14" fill="url(#bg)" />
  <path d="M20 23h24a2 2 0 0 1 1.9 2.5l-3 13A2 2 0 0 1 41 40H25a2 2 0 0 1-1.9-1.5l-3-13A2 2 0 0 1 20 23z" fill="#ffffff" opacity="0.9" />
  <path d="M24 23a8 8 0 0 1 16 0" fill="none" stroke="#ffffff" stroke-width="3" stroke-linecap="round" />
  <circle cx="30" cy="33" r="2" fill="#1f7a8c" />
  <circle cx="36" cy="33" r="2" fill="#1f7a8c" />
</svg>
